<svg width="16" height="16" viewBox="0 0 16 16" fill="none" xmlns="http://www.w3.org/2000/svg">
    <path d="M15.5 8C15.5 12.1421 12.1421 15.5 8 15.5C3.85786 15.5 0.5 12.1421 0.5 8C0.5 3.85786 3.85786 0.5 8 0.5C12.1421 0.5 15.5 3.85786 15.5 8Z" fill="white" stroke="#E3E7ED"/>
    <path fill-rule="evenodd" clip-rule="evenodd" d="M11.113 4.88711C11.4069 5.18106 11.4069 5.65763 11.113 5.95158L5.95167 11.1129C5.65772 11.4068 5.18115 11.4068 4.88721 11.1129C4.59326 10.8189 4.59326 10.3423 4.88721 10.0484L10.0485 4.88711C10.3424 4.59317 10.819 4.59317 11.113 4.88711Z" fill="#D4DBE7"/>
    <path fill-rule="evenodd" clip-rule="evenodd" d="M4.88721 4.88711C5.18115 4.59317 5.65772 4.59317 5.95167 4.88711L11.113 10.0484C11.4069 10.3423 11.4069 10.8189 11.113 11.1129C10.819 11.4068 10.3424 11.4068 10.0485 11.1129L4.88721 5.95158C4.59326 5.65763 4.59326 5.18106 4.88721 4.88711Z" fill="#D4DBE7"/>
</svg>

